FFmpeg version SVN-r25716, Copyright (c) 2000-2010 the FFmpeg developers  built on Nov 10 2010 12:23:18 with gcc 4.1.2 20080704 (Red Hat 4.1.2-48)  configuration: --enable-libmp3lame --enable-shared --disable-mmx --arch=x86_64  libavutil     50.33. 0 / 50.33. 0  libavcore      0.12. 1 /  0.12. 1  libavcodec    52.94. 4 / 52.94. 4  libavformat   52.84. 0 / 52.84. 0  libavdevice   52. 2. 2 / 52. 2. 2  libavfilter    1.59. 0 /  1.59. 0  libswscale     0.12. 0 /  0.12. 0Input #0, avi, from '/RAID10/data/converted_video_files/47386.avi':  Duration: 00:00:07.65, start: 0.000000, bitrate: 21005 kb/s    Stream #0.0: Video: msvideo1, rgb555le, 1024x1024, 20 tbr, 20 tbn, 20 tbc[buffer @ 0xad4e490] w:1024 h:1024 pixfmt:rgb555le[ffsink @ 0xad4d920] auto-inserting filter 'auto-inserted scaler 0' between the filter 'src' and the filter 'out'[scale @ 0xad4c820] w:1024 h:1024 fmt:rgb555le -> w:1024 h:1024 fmt:yuv420p flags:0x4Output #0, flv, to '/RAID10/data/converted_video_files/47386.flv':  Metadata:    encoder         : Lavf52.84.0    Stream #0.0: Video: flv, yuv420p, 1024x1024, q=2-31, 600 kb/s, 1k tbn, 24 tbcStream mapping:  Stream #0.0 -> #0.0Press [q] to stop encodingframe=    9 fps=  0 q=15.2 size=     451kB time=0.46 bitrate=8045.0kbits/s    frame=   19 fps= 15 q=31.0 size=     491kB time=0.96 bitrate=4197.8kbits/s    frame=   27 fps= 17 q=31.0 size=     527kB time=1.33 bitrate=3233.2kbits/s    frame=   37 fps= 17 q=24.8 size=     578kB time=1.83 bitrate=2580.7kbits/s    frame=   47 fps= 18 q=31.0 size=     589kB time=2.33 bitrate=2066.7kbits/s    frame=   55 fps= 17 q=31.0 size=     624kB time=2.75 bitrate=1859.4kbits/s    frame=   66 fps= 18 q=31.0 size=     663kB time=3.29 bitrate=1649.0kbits/s    frame=   77 fps= 18 q=31.0 size=     699kB time=3.83 bitrate=1494.4kbits/s    frame=   87 fps= 18 q=31.0 size=     735kB time=4.33 bitrate=1388.7kbits/s    frame=   98 fps= 18 q=31.0 size=     771kB time=4.87 bitrate=1295.7kbits/s    frame=  104 fps= 18 q=31.0 size=     775kB time=5.21 bitrate=1219.8kbits/s    frame=  113 fps= 18 q=31.0 size=     882kB time=5.62 bitrate=1285.1kbits/s    frame=  121 fps= 18 q=24.8 size=     948kB time=6.04 bitrate=1285.6kbits/s    frame=  127 fps= 17 q=31.0 size=     998kB time=6.33 bitrate=1290.1kbits/s    frame=  136 fps= 17 q=31.0 size=    1044kB time=6.79 bitrate=1259.1kbits/s    frame=  147 fps= 17 q=31.0 size=    1081kB time=7.33 bitrate=1207.1kbits/s    frame=  153 fps= 17 q=31.0 Lsize=    1085kB time=7.62 bitrate=1166.0kbits/s    video:1083kB audio:0kB global headers:0kB muxing overhead 0.239734%